<?xml version="1.0" encoding="utf-8"?>
<!-- Generator: Adobe Illustrator 24.3.0, SVG Export Plug-In . SVG Version: 6.00 Build 0)  -->
<svg version="1.1" id="Layer_1" xmlns="http://www.w3.org/2000/svg" xmlns:xlink="http://www.w3.org/1999/xlink" x="0px" y="0px"
	 viewBox="0 0 2305.3 800.3" style="enable-background:new 0 0 2305.3 800.3;" xml:space="preserve">
<style type="text/css">
	.st0{fill:#FFFFFF;}
</style>
<g id="Layer_2_1_">
	<g id="Layer_1-2">
		<g>
			<path class="st0" d="M709.6,189.9v15.7c-2.2,14.2-6.4,27.5-14.5,39.6c-18.3,27.4-53.1,42.1-85.4,35.6c-1.8-0.4-3.5-0.7-5.3-1
				c-3.1-0.4-6.2-3.5-8.7-2.1c-2.4,1.3-3.4,5-5.1,7.5c-9.5,14-21.8,24.5-37.5,31.1c-1.2,0.6-2.3,1.2-3.4,1.9
				c-12.6,3.8-25.3,6.1-38.5,4.3c-4.7-0.7-9.3-1.4-14-2.1c-0.4-0.3-0.8-0.5-1.3-0.7c-26.2-8.7-44.6-25.7-54.7-51.5
				c-1.1-2.9-2.9-1.8-4.7-1.2c-23,7.1-44.7,4.5-64-10.3c-19.2-14.8-28.1-34.9-26.7-59.4c0.6-10.7,4.2-20.3,8.7-29.8
				c6.9-9.8,14.6-18.7,25.4-24.6c1.5-0.8,2.1-2.1,1.6-3.7c-1.7-5.8-1.8-11.9-2.9-17.8c0.6-5.2,0.9-10.4,1.9-15.5
				c9.8-52.7,72.7-77.3,115.5-45.3c2.7,2,5.4,4.1,8,6.2c1.8-2.8,3.6-5.7,5.4-8.5c13.3-19.8,31.7-32.5,55.1-36.7
				c46.9-8.5,90,22.3,98.6,68.1c1.7,9.3,1.8,18.9,0.2,28.3c-0.4,2.2-0.8,4.3,1.9,5.8c25.4,14.3,39.8,36,43.9,64.7
				C709.3,189,709.4,189.5,709.6,189.9z"/>
			<g>
				<path class="st0" d="M217.8,289.7c46.7,0,93.4,0,140.1,0c33.6,0,56,25.4,51.6,58.6c-7.3,55-14.7,109.9-22,164.9
					c-7.3,54.7-14.9,109.3-21.8,164.1c-2.4,18.8-4.5,37.5-7.6,56.2c-4.2,25-24.1,42.6-49.6,42.7c-59.5,0.4-119.1,0.1-178.6,0.1
					c-29.1,0-48.3-23.4-51.2-45.3C68.9,655.8,57.6,580.7,47,505.5c-7.3-51.9-14.3-103.9-21.8-155.7c-4.7-32.6,18.5-59.9,51.7-59.9
					C123.8,289.8,170.8,289.8,217.8,289.7L217.8,289.7z M217.5,331.2v0.3c-46.1,0-92.2,0-138.2,0c-11,0-13.8,3.2-12.5,13.8
					c0.7,6.1,1.3,12.1,2.2,18.2c7.3,52.2,14.5,104.4,21.8,156.6c9.5,67.9,19.1,135.8,28.7,203.7c1.1,7.8,4.7,11.2,12.6,11.1
					c57.4-0.1,114.7,0,172.1,0.1c8.6,0,12.7-3.5,13.7-12.2c5.1-40.2,10.6-80.3,16-120.5c4.9-36.5,9.8-73.1,14.8-109.6
					c6.4-48,12.7-96.1,19.2-144.1c2-14.7,0.1-17.4-14.9-17.4C307.9,331.1,262.7,331.2,217.5,331.2z"/>
				<path class="st0" d="M257.7,379.5c24.3,0,44,19.6,44,43.9c0,0.1,0,0.1,0,0.2c0,24.4-19,43.6-43.2,43.8
					c-24.4,0.2-44.6-19.3-44.9-43.4C213.3,400.2,233.7,379.6,257.7,379.5z M290.2,424c0.2-18.1-14.2-33.1-31.9-33.2
					c-17.5-0.2-32.7,14.8-32.9,32.5c-0.3,17.9,14.1,32.7,32,32.9h0.1c17.7,0.3,32.4-13.8,32.7-31.5
					C290.2,424.4,290.2,424.2,290.2,424z"/>
				<path class="st0" d="M224.8,535.1c0.3,19.8-15.9,36.4-35.4,36.5c-19.3,0.1-35.5-16-35.8-35.3c-0.4-19.5,15.1-35.7,34.6-36.1
					C208.6,499.8,224.5,514.9,224.8,535.1z M164.9,535.8c-0.1,13.5,10.6,24.5,24.1,24.8c13.5,0.2,24.8-11.4,24.7-25.1
					c-0.1-13.8-10.6-24.4-24.1-24.6C175.6,510.8,164.8,521.7,164.9,535.8L164.9,535.8z"/>
				<path class="st0" d="M216.8,709.2c-26.8,0-53.7,0-80.5,0c-3.8,0-9,1.1-9.1-4.7c-0.1-6.3,5.3-5.5,9.5-5.5c54,0,108,0,162,0
					c1.2,0,2.4,0,3.7,0c3.4,0.3,6.1,1.6,6.1,5.4c-0.1,4-3.2,4.8-6.4,4.8c-15.6,0-31.1,0-46.7,0H216.8z"/>
				<path class="st0" d="M282.9,635.8c0,14.5-11.5,26.3-25.7,26.4c-14.5,0.2-26.9-12.1-26.8-26.5c0.1-14.1,12.1-26.3,25.9-26.5
					c14.6-0.1,26.5,11.6,26.6,26.2C282.9,635.6,282.9,635.7,282.9,635.8z M272.8,636.1c0.2-8.6-7.6-16.5-16.2-16.5
					c-8.3,0-15.7,7.3-15.9,15.7s7.7,16.6,16.1,16.7C264.5,652.1,272.6,644.1,272.8,636.1L272.8,636.1z"/>
			</g>
		</g>
		<g>
			<path class="st0" d="M859.1,603.3c-11.2,6.5-23.9,9.8-37.9,9.8c-15.1,0-28.5-3.7-40.3-11.1c-11.7-7.4-21.6-17.6-29.7-30.5
				c-8.1-12.9-14.3-28.2-18.6-45.9c-4.3-17.7-6.5-36.9-6.5-57.5c0-20.9,2.2-40.1,6.5-57.9c4.3-17.7,10.6-33,18.8-45.9
				s18.2-23,29.9-30.3s25-10.9,39.9-10.9c13,0,25.2,2.7,36.6,8.2c11.3,5.5,20.8,14.1,28.3,25.8l-17.6,18c-6-9.1-13-15.9-20.9-20.3
				c-8-4.4-16.4-6.6-25.2-6.6c-11.5,0-21.4,3.1-29.9,9.4s-15.5,14.9-21.1,25.8s-9.8,23.7-12.5,38.3c-2.7,14.6-4.1,30.1-4.1,46.5
				s1.4,31.9,4.3,46.3c2.9,14.5,7.1,27.2,12.7,38.1c5.6,10.9,12.6,19.6,21.1,26s18.4,9.6,29.9,9.6c9.9,0,18.9-2.8,27-8.4
				c8.1-5.6,14.7-13,19.9-22.1l17.2,17.6C879.6,587.4,870.3,596.8,859.1,603.3z"/>
			<path class="st0" d="M925.6,606.4V329.6H953V581h79v25.4H925.6z"/>
			<path class="st0" d="M1206.5,549.9c-2.7,12.6-7.2,23.7-13.3,33c-6.1,9.4-14.3,16.8-24.4,22.1c-10.2,5.3-22.7,8-37.5,8
				c-14.9,0-27.3-2.7-37.3-8s-18.1-12.7-24.2-22.1c-6.1-9.4-10.5-20.4-13.1-33s-3.9-26.1-3.9-40.5V329.6h27.4v176.3
				c0,10.2,0.7,20.2,2.2,30.1c1.4,9.9,4,18.7,7.8,26.4s9,13.9,15.6,18.6c6.6,4.7,15.3,7,26,7c10.4,0,19-2.3,25.8-7
				s12.1-10.9,15.8-18.6c3.8-7.7,6.4-16.4,7.8-26.2s2.2-19.9,2.2-30.3V329.6h27.4v179.9C1210.6,523.8,1209.2,537.3,1206.5,549.9z"/>
			<path class="st0" d="M1413.5,531c0,14.3-2.3,26.3-6.8,36c-4.6,9.6-10.4,17.4-17.4,23.3c-7,5.9-14.8,10-23.3,12.5
				s-16.6,3.7-24.4,3.7h-70.8V329.6h62.7c7.8,0,15.9,1,24.3,3.1s16,5.7,22.9,10.8c6.9,5.1,12.6,12,17.1,20.7
				c4.4,8.7,6.7,19.7,6.7,33c0,9.4-1.1,17.5-3.4,24.4c-2.2,6.9-5.2,12.9-8.9,18c-3.7,5.1-7.9,9.3-12.6,12.5
				c-4.7,3.3-9.6,5.8-14.6,7.6v0.8c4.9,1,10.3,3.1,16,6.3c5.7,3.1,11,7.5,15.8,13.1s8.8,12.6,11.9,21.1
				C1412,509.5,1413.5,519.5,1413.5,531z M1378.7,401.4c0-9.1-1.4-16.7-4.1-23s-6.4-11.2-10.9-15c-4.6-3.8-9.7-6.4-15.4-8
				c-5.7-1.6-11.6-2.3-17.6-2.3h-34v97.8h34.8c5.7,0,11.4-0.9,17-2.7c5.6-1.8,10.6-4.7,15.1-8.8c4.4-4,8.1-9.2,10.9-15.4
				C1377.3,417.7,1378.7,410.2,1378.7,401.4z M1386.5,529.2c0-10.4-1.6-19.2-4.7-26.3s-7.2-12.9-12.1-17.3c-5-4.4-10.5-7.7-16.6-9.7
				c-6.1-2.1-12.1-3.1-17.8-3.1h-38.7V583h38.7c7,0,13.7-1,19.9-3.1s11.7-5.3,16.4-9.7c4.7-4.4,8.3-10,10.9-16.8
				C1385.2,546.6,1386.5,538.6,1386.5,529.2z"/>
			<path class="st0" d="M1653.2,535.7c0,12.3-1.8,23.1-5.5,32.6s-8.7,17.6-15.1,24.2c-6.4,6.6-13.9,11.7-22.5,15.2
				s-17.7,5.3-27.4,5.3c-14.1,0-27-3-38.9-9s-21.4-13.9-28.7-23.9l16.8-19.2c6,8.6,13.6,15.2,22.7,19.9s18.4,7,27.8,7
				c12.5,0,23-4.4,31.5-13.3c8.5-8.9,12.7-21.5,12.7-37.9c0-7.8-1.3-14.7-3.9-20.7c-2.6-6-6.1-11.3-10.6-16
				c-4.4-4.7-9.5-8.9-15.1-12.5s-11.5-7-17.8-10.2c-7.6-3.6-14.7-7.8-21.5-12.3c-6.8-4.6-12.7-9.8-17.8-15.8
				c-5.1-6-9.2-13.1-12.3-21.3s-4.7-17.8-4.7-28.7c0-12.8,2-23.9,5.9-33.4s9.2-17.5,15.8-23.9c6.6-6.4,14.1-11.1,22.5-14.3
				c8.3-3.1,17.1-4.7,26.2-4.7c12.5,0,23.8,2.2,33.8,6.5s18.4,11,25.2,20.1l-16.8,19.2c-5.2-7.6-11.3-13-18.4-16.2
				c-7-3.3-14.7-4.9-23.1-4.9c-5.5,0-10.9,1-16.2,2.9c-5.3,2-10.1,5-14.3,9.2c-4.2,4.2-7.6,9.5-10.2,16s-3.9,14.2-3.9,23.1
				c0,7.8,1.2,14.6,3.5,20.3c2.3,5.7,5.5,10.8,9.6,15.2c4,4.4,8.7,8.3,14.1,11.7c5.3,3.4,10.9,6.5,16.6,9.4
				c7.3,3.7,14.5,7.8,21.7,12.5s13.6,10.2,19.4,16.4c5.7,6.3,10.3,13.6,13.7,21.9C1651.5,514.7,1653.2,524.5,1653.2,535.7z"/>
			<path class="st0" d="M1874.1,467.6c0,21.6-2.1,41.4-6.3,59.2c-4.2,17.9-10.2,33.2-18,45.9c-7.8,12.8-17.3,22.7-28.5,29.7
				s-24,10.6-38.3,10.6s-27.2-3.5-38.5-10.6s-21-16.9-28.9-29.7c-8-12.8-14-28.1-18.2-45.9c-4.2-17.9-6.3-37.6-6.3-59.2
				c0-21.4,2-41,6.1-58.8c4-17.9,10-33.1,17.8-45.7s17.4-22.5,28.7-29.5s24.4-10.6,39.3-10.6c14.3,0,27.1,3.5,38.3,10.6
				c11.2,7,20.7,16.9,28.5,29.5s13.8,27.9,18,45.7C1872,426.6,1874.1,446.3,1874.1,467.6z M1845.6,467.6c0-16.7-1.3-32.3-3.9-46.9
				s-6.6-27.2-11.9-37.9c-5.3-10.7-11.9-19.2-19.7-25.4c-7.8-6.3-16.8-9.4-27-9.4c-10.7,0-20,3.1-28,9.4s-14.5,14.7-19.7,25.4
				c-5.2,10.7-9.1,23.3-11.7,37.9s-3.9,30.2-3.9,46.9c0,16.7,1.3,32.3,3.9,46.9s6.5,27.4,11.7,38.3c5.2,10.9,11.8,19.6,19.7,25.8
				c7.9,6.3,17.3,9.4,28,9.4c10.4,0,19.5-3.1,27.4-9.4c7.8-6.3,14.3-14.9,19.5-25.8c5.2-10.9,9.1-23.7,11.7-38.3
				C1844.3,500,1845.6,484.3,1845.6,467.6z"/>
			<path class="st0" d="M2085.6,468.4c0,22.7-2.3,42.6-7,59.8c-4.7,17.2-11.5,31.6-20.3,43.2c-8.9,11.6-19.5,20.3-31.9,26.2
				s-26.1,8.8-41.3,8.8h-59.4V329.6h59.8c15.1,0,28.9,2.9,41.2,8.8c12.4,5.9,22.9,14.7,31.7,26.4c8.7,11.7,15.4,26.3,20.1,43.6
				C2083.3,425.7,2085.6,445.7,2085.6,468.4z M2058.7,468.4c0-19.6-1.9-36.7-5.7-51.2s-9-26.5-15.6-35.9s-14.5-16.5-23.5-21.2
				s-18.7-7.1-29.1-7.1h-32.1v230h32.1c10.4,0,20.1-2.4,29.1-7.1c9-4.7,16.8-11.8,23.5-21.2c6.6-9.4,11.9-21.3,15.6-35.7
				C2056.8,504.6,2058.7,487.8,2058.7,468.4z"/>
			<path class="st0" d="M2246.3,606.4l-16.8-69.2h-85.2l-17.6,69.2h-27.8l70.4-276.8h37.1l68.4,276.8H2246.3z M2188.1,354.2h-1.6
				l-38.3,161.1h77.4L2188.1,354.2z"/>
		</g>
	</g>
</g>
</svg>
